<mxfile host="app.diagrams.net" modified="2023-11-04T23:10:15.563Z" agent="Mozilla/5.0 (Macintosh; Intel Mac OS X 10_15_7) AppleWebKit/537.36 (KHTML, like Gecko) Chrome/118.0.0.0 Safari/537.36" version="22.0.8" etag="OgSr-8rmvhln7Z7fgIir" type="github">
  <diagram name="Page-1" id="JNMdM_4lLZivY3t-fAg5">
    <mxGraphModel>
      <root>
        <mxCell id="0" />
        <mxCell id="1" parent="0" />
      </root>
    </mxGraphModel>
  </diagram>
</mxfile>
